<svg xmlns="http://www.w3.org/2000/svg" viewBox="0 0 195.6 269.9"><style type="text/css">
    .st0{display:none;}
    .st1{display:inline;fill:#3B599A;}
    .st2{display:inline;stroke:#000000;stroke-width:24;stroke-miterlimit:10;}
    .st3{display:inline;fill:#FFFFFF;}
    .st4{display:inline;fill:none;stroke:#000000;stroke-width:24;stroke-miterlimit:10;}
    .st5{display:inline;fill:#603813;stroke:#000000;stroke-width:24;stroke-miterlimit:10;}
</style><g class="st0"><rect x="-0.1" y="-0.1" class="st1" width="195.8" height="270"/></g><title>  meAsset 1</title><g class="st0"><path class="st2" d="M98 12L98 12c47.3 0 85.6 38.3 85.6 85.6v74.7c0 47.3-38.3 85.6-85.6 85.6h0c-47.3 0-85.6-38.3-85.6-85.6V97.6C12.4 50.3 50.7 12 98 12z"/><path class="st3" d="M97.8 5.9L97.8 5.9c52.7 0 95.4 42.7 95.4 95.4v29.5c0 52.7-42.7 95.4-95.4 95.4h0c-52.7 0-95.4-42.7-95.4-95.4v-29.5C2.4 48.6 45.1 5.9 97.8 5.9z"/><path class="st4" d="M82.8 12h29.7c39.1 0 70.8 31.7 70.8 70.8v71.5c0 39.1-31.7 70.8-70.8 70.8H82.8C43.7 225 12 193.3 12 154.2V82.8C12 43.7 43.7 12 82.8 12z"/><path class="st5" d="M46 33h100.5c5 0 9 4 9 9v3.2c0 5-4 9-9 9H46c-5 0-9-4-9-9V42C37 37 41 33 46 33z"/></g><path d="M195.2 89.1v-6.3c0-45.6-37.1-82.8-82.8-82.8H82.8C37.1 0 0 37.1 0 82.8v71.5c0 2.7 0.1 5.5 0.4 8.1v9.9c0 53.8 43.8 97.6 97.6 97.6s97.6-43.8 97.6-97.6V97.6C195.6 94.7 195.5 91.9 195.2 89.1zM171.2 154.2c0 32.4-26.4 58.8-58.8 58.8H82.8c-30.1 0-55-22.7-58.4-51.9V97.6c0-12.9 3.3-25 9.2-35.6 3.5 2.6 7.8 4.1 12.4 4.1h100.5c5.8 0 11-2.4 14.8-6.2 5.4 9 8.9 19.2 10 30.1V154.2z"/><path d="M131.8 110.7h1.6c2.5 0 4.6 2 4.6 4.6v1.6c0 2.5-2 4.6-4.6 4.6h-1.6c-2.5 0-4.6-2-4.6-4.6v-1.6C127.2 112.7 129.3 110.7 131.8 110.7z"/><path d="M60.7 110.7h1.6c2.5 0 4.6 2 4.6 4.6v1.6c0 2.5-2 4.6-4.6 4.6h-1.6c-2.5 0-4.6-2-4.6-4.6v-1.6C56.1 112.7 58.2 110.7 60.7 110.7z"/><path d="M118.3 91.7h28.6c3.1 0 5.7 2.5 5.7 5.7v2c0 3.1-2.5 5.7-5.7 5.7h-28.6c-3.1 0-5.7-2.5-5.7-5.7v-2C112.6 94.2 115.2 91.7 118.3 91.7z"/><path d="M47.2 91.7h28.6c3.1 0 5.7 2.5 5.7 5.7v2c0 3.1-2.5 5.7-5.7 5.7H47.2c-3.1 0-5.7-2.5-5.7-5.7v-2C41.5 94.2 44 91.7 47.2 91.7z"/><rect x="87.2" y="191.6" width="20.7" height="38.9"/><path d="M134.2 156.9h-0.4 -2.7H63h-2.7 -0.4c-4.8 0-8.7 3.9-8.7 8.7v0.4 3.2 54c0 4.8 3.9 8.7 8.7 8.7H63c4.8 0 8.7-3.9 8.7-8.7v-45h50.7v45c0 4.8 3.9 8.7 8.7 8.7h3.1c4.8 0 8.7-3.9 8.7-8.7v-54V166v-0.4C142.8 160.8 139 156.9 134.2 156.9z"/></svg>