<svg xmlns="http://www.w3.org/2000/svg" viewBox="0 0 195.62 269.89"><defs><style>.cls-1,.cls-4,.cls-5{stroke:#000;stroke-miterlimit:10;stroke-width:24px;}.cls-2{fill:#fff;}.cls-3,.cls-4{fill:none;}.cls-5{fill:#603813;}</style></defs><title>meAsset 1</title><g id="Layer_2" data-name="Layer 2"><g id="Layer_1-2" data-name="Layer 1"><rect class="cls-1" x="12.4" y="12" width="171.22" height="245.89" rx="85.61" ry="85.61"/><rect class="cls-2" x="2.38" y="5.88" width="190.86" height="220.39" rx="95.43" ry="95.43"/><rect x="127.24" y="110.7" width="10.75" height="10.75" rx="4.56" ry="4.56"/><rect x="56.12" y="110.7" width="10.75" height="10.75" rx="4.56" ry="4.56"/><rect x="51.27" y="156.93" width="20.44" height="74.95" rx="8.67" ry="8.67"/><rect x="51.27" y="156.93" width="91.57" height="21.28" rx="9.03" ry="9.03"/><rect x="112.62" y="91.7" width="40" height="13.4" rx="5.69" ry="5.69"/><rect x="41.49" y="91.7" width="40" height="13.4" rx="5.69" ry="5.69"/><rect x="87.19" y="191.6" width="20.69" height="33.39"/><rect x="122.4" y="156.93" width="20.44" height="74.95" rx="8.67" ry="8.67"/><path class="cls-3" d="M17,169.66l.3,21.67"/><rect class="cls-4" x="12" y="12" width="171.24" height="212.99" rx="70.76" ry="70.76"/><rect class="cls-5" x="37.02" y="33.01" width="118.43" height="21.14" rx="8.97" ry="8.97"/></g></g></svg>