<?xml version="1.0" standalone="no"?>
<!DOCTYPE svg PUBLIC "-//W3C//DTD SVG 20010904//EN"
 "http://www.w3.org/TR/2001/REC-SVG-20010904/DTD/svg10.dtd">
<svg version="1.0" xmlns="http://www.w3.org/2000/svg"
 width="16.000000pt" height="16.000000pt" viewBox="0 0 16.000000 16.000000"
 preserveAspectRatio="xMidYMid meet">
<metadata>
Created by potrace 1.11, written by Peter Selinger 2001-2013
</metadata>
<g transform="translate(0.000000,16.000000) scale(0.001481,-0.001481)"
fill="#000000" stroke="none">
<path d="M4585 10793 c-306 -25 -547 -71 -802 -154 -842 -272 -1534 -862
-1932 -1648 -186 -367 -288 -709 -343 -1151 -17 -133 -17 -3178 -1 -3845 11
-431 20 -543 59 -768 169 -974 708 -1852 1504 -2448 826 -619 1867 -884 2902
-739 130 18 240 40 402 81 1471 365 2603 1572 2880 3069 67 362 68 407 63
2295 -5 1739 -13 2248 -41 2442 -86 617 -314 1147 -705 1643 -102 129 -392
416 -522 518 -524 406 -1100 634 -1758 697 -123 12 -309 15 -910 13 -416 -1
-774 -3 -796 -5z m3555 -2343 c93 -207 167 -484 190 -710 14 -134 13 -3240 -1
-3368 -75 -692 -451 -1312 -1031 -1701 -42 -28 -79 -51 -82 -51 -3 0 -6 350
-6 778 0 805 -2 858 -42 935 -29 57 -101 125 -166 155 l-57 27 -1570 0 -1570
0 -57 -27 c-65 -30 -137 -98 -166 -155 -40 -77 -42 -130 -42 -920 0 -420 -3
-763 -6 -763 -10 0 -122 78 -199 138 -106 83 -322 305 -402 412 -247 331 -396
686 -459 1095 -18 113 -19 214 -19 1765 0 1547 1 1652 18 1760 21 131 38 208
73 332 23 84 95 279 113 306 6 10 29 -7 88 -65 133 -130 311 -215 493 -234
110 -12 4107 -11 4209 1 157 18 321 88 442 189 64 54 164 170 175 203 9 30 24
9 74 -102z m-1750 -5460 l0 -679 -32 -6 c-95 -16 -231 -25 -380 -25 l-168 0 0
425 0 425 -415 0 -415 0 0 -426 0 -427 -222 6 c-195 5 -291 13 -375 32 l-23 5
0 675 0 675 1015 0 1015 0 0 -680z"/>
<path d="M3290 7109 c-56 -25 -86 -53 -113 -104 -19 -34 -22 -57 -22 -145 0
-80 4 -112 17 -136 24 -44 70 -88 115 -110 36 -18 72 -19 626 -22 379 -2 608
1 645 8 78 14 131 52 165 119 24 48 27 66 27 145 0 66 -5 102 -19 131 -23 51
-89 111 -138 124 -25 7 -248 11 -648 11 -592 0 -611 -1 -655 -21z"/>
<path d="M6146 7115 c-49 -17 -103 -68 -127 -120 -14 -30 -19 -64 -19 -131 0
-79 3 -97 28 -145 33 -67 86 -105 164 -119 37 -7 266 -10 645 -8 556 3 590 4
627 22 98 49 141 136 134 270 -7 121 -44 183 -138 225 -44 20 -62 21 -660 20
-497 0 -622 -3 -654 -14z"/>
<path d="M3845 6351 c-51 -23 -92 -71 -101 -116 -3 -19 -5 -68 -2 -108 3 -63
8 -80 32 -112 38 -49 95 -75 171 -75 86 0 128 15 168 59 97 108 64 306 -60
357 -47 20 -160 17 -208 -5z"/>
<path d="M6695 6356 c-67 -30 -104 -89 -112 -175 -7 -75 11 -134 54 -181 40
-45 82 -60 168 -60 76 0 133 26 171 76 28 36 29 42 29 139 0 97 -1 103 -29
139 -40 53 -95 76 -181 75 -38 0 -83 -6 -100 -13z"/>
</g>
</svg>
